<svg width="48" height="48" viewBox="0 0 48 48" fill="none" xmlns="http://www.w3.org/2000/svg">
<path d="M22.125 12.375C22.545 12.375 22.875 12.705 22.875 13.125V16.125H31.875V25.125H34.875C35.295 25.125 35.625 25.455 35.625 25.875C35.625 26.295 35.295 26.625 34.875 26.625H31.875V35.625H28.695C27.675 33 25.11 31.125 22.125 31.125C19.14 31.125 16.575 33 15.555 35.625H12.375V32.445C15 31.425 16.875 28.86 16.875 25.875C16.875 22.89 15.015 20.325 12.39 19.305L12.375 16.125H21.375V13.125C21.375 12.705 21.705 12.375 22.125 12.375ZM22.125 9.375C20.055 9.375 18.375 11.055 18.375 13.125H12.375C10.725 13.125 9.39 14.475 9.39 16.125V21.825H9.825C12.06 21.825 13.875 23.64 13.875 25.875C13.875 28.11 12.06 29.925 9.825 29.925H9.375V35.625C9.375 37.275 10.725 38.625 12.375 38.625H18.075V38.175C18.075 35.94 19.89 34.125 22.125 34.125C24.36 34.125 26.175 35.94 26.175 38.175V38.625H31.875C33.525 38.625 34.875 37.275 34.875 35.625V29.625C36.945 29.625 38.625 27.945 38.625 25.875C38.625 23.805 36.945 22.125 34.875 22.125V16.125C34.875 14.475 33.525 13.125 31.875 13.125H25.875C25.875 11.055 24.195 9.375 22.125 9.375Z" fill="black"/>
</svg>
