<svg width="48" height="48" viewBox="0 0 48 48" fill="none" xmlns="http://www.w3.org/2000/svg">
<path d="M29.625 12C29.625 10.335 30.96 9 32.625 9C34.29 9 35.625 10.335 35.625 12C35.625 13.665 34.29 15 32.625 15C30.96 15 29.625 13.665 29.625 12ZM35.625 39V30H39.375L35.565 18.555C35.145 17.325 34.005 16.5 32.715 16.5H32.535C31.245 16.5 30.09 17.325 29.685 18.555L28.395 22.425C30.015 23.325 31.125 25.02 31.125 27V39H35.625ZM24.375 23.25C25.62 23.25 26.625 22.245 26.625 21C26.625 19.755 25.62 18.75 24.375 18.75C23.13 18.75 22.125 19.755 22.125 21C22.125 22.245 23.13 23.25 24.375 23.25ZM13.875 15C15.54 15 16.875 13.665 16.875 12C16.875 10.335 15.54 9 13.875 9C12.21 9 10.875 10.335 10.875 12C10.875 13.665 12.21 15 13.875 15ZM16.875 39V28.5H19.125V19.5C19.125 17.85 17.775 16.5 16.125 16.5H11.625C9.975 16.5 8.625 17.85 8.625 19.5V28.5H10.875V39H16.875ZM26.625 39V33H28.125V27C28.125 25.77 27.105 24.75 25.875 24.75H22.875C21.645 24.75 20.625 25.77 20.625 27V33H22.125V39H26.625Z" fill="black"/>
</svg>
