<svg width="48" height="48" viewBox="0 0 48 48" fill="none" xmlns="http://www.w3.org/2000/svg">
<path d="M24.75 13.875C26.4 13.875 27.75 12.525 27.75 10.875C27.75 9.225 26.4 7.875 24.75 7.875C23.1 7.875 21.75 9.225 21.75 10.875C21.75 12.525 23.1 13.875 24.75 13.875ZM34.5 24.375V40.125H33V24.375C33 23.955 32.67 23.625 32.25 23.625C31.83 23.625 31.5 23.955 31.5 24.375V25.875H30V24.84C27.81 24.27 25.95 22.905 24.735 21.06C24.27 22.365 24 23.73 24 25.125C24 25.47 24.03 25.815 24.045 26.16L27 30.375V40.125H24V32.625L21.33 28.815L21 34.125L16.5 40.125L14.1 38.325L18 33.12V25.125C18 23.4 18.27 21.69 18.75 20.04L16.5 21.315V26.625H13.5V19.575L21.6 14.97V14.985C22.485 14.52 23.58 14.49 24.51 15.03C25.05 15.345 25.455 15.795 25.71 16.305L26.895 18.81C27.87 20.775 29.91 22.125 32.25 22.125C33.495 22.125 34.5 23.13 34.5 24.375Z" fill="white"/>
</svg>
