<svg width="48" height="48" viewBox="0 0 48 48" fill="none" xmlns="http://www.w3.org/2000/svg">
<path d="M34.5 8.25H13.5C11.835 8.25 10.5 9.6 10.5 11.25V32.25C10.5 33.9 11.835 35.25 13.5 35.25H19.5L24 39.75L28.5 35.25H34.5C36.15 35.25 37.5 33.9 37.5 32.25V11.25C37.5 9.6 36.15 8.25 34.5 8.25ZM34.5 32.25H27.255L24 35.505L20.745 32.25H13.5V11.25H34.5V32.25ZM24 21.75C26.475 21.75 28.5 19.725 28.5 17.25C28.5 14.775 26.475 12.75 24 12.75C21.525 12.75 19.5 14.775 19.5 17.25C19.5 19.725 21.525 21.75 24 21.75ZM24 15.75C24.825 15.75 25.5 16.425 25.5 17.25C25.5 18.075 24.825 18.75 24 18.75C23.175 18.75 22.5 18.075 22.5 17.25C22.5 16.425 23.175 15.75 24 15.75ZM33 28.62C33 24.87 27.045 23.25 24 23.25C20.955 23.25 15 24.87 15 28.62V30.75H33V28.62ZM18.72 27.75C19.83 26.985 22.065 26.25 24 26.25C25.935 26.25 28.17 26.985 29.28 27.75H18.72Z" fill="white"/>
</svg>
