<svg width="45" height="45" viewBox="0 0 45 45" fill="none" xmlns="http://www.w3.org/2000/svg">
<path d="M22.5 0C10.0938 0 0 10.093 0 22.5C0 34.907 10.0938 45 22.5 45C34.9062 45 45 34.907 45 22.5C45 10.093 34.9062 0 22.5 0ZM24.2308 35.4808C24.2308 36.4362 23.4554 37.2115 22.5 37.2115C21.5446 37.2115 20.7692 36.4362 20.7692 35.4808V33.75C20.7692 32.7946 21.5446 32.0192 22.5 32.0192C23.4554 32.0192 24.2308 32.7946 24.2308 33.75V35.4808ZM24.2308 28.5577C24.2308 29.5131 23.4554 30.2885 22.5 30.2885C21.5446 30.2885 20.7692 29.5131 20.7692 28.5577V9.51923C20.7692 8.56385 21.5446 7.78846 22.5 7.78846C23.4554 7.78846 24.2308 8.56385 24.2308 9.51923V28.5577Z" fill="#C43628"/>
</svg>
