<svg width="14" height="14" viewBox="0 0 14 14" fill="none" xmlns="http://www.w3.org/2000/svg">
<path d="M7.01367 3.84192C8.73633 3.84192 10.1582 5.26379 10.1582 6.98645C10.1582 8.73645 8.73633 10.131 7.01367 10.131C5.26367 10.131 3.86914 8.73645 3.86914 6.98645C3.86914 5.26379 5.26367 3.84192 7.01367 3.84192ZM7.01367 9.03723C8.13477 9.03723 9.03711 8.13489 9.03711 6.98645C9.03711 5.86536 8.13477 4.96301 7.01367 4.96301C5.86523 4.96301 4.96289 5.86536 4.96289 6.98645C4.96289 8.13489 5.89258 9.03723 7.01367 9.03723ZM11.0059 3.73254C11.0059 3.32239 10.6777 2.99426 10.2676 2.99426C9.85742 2.99426 9.5293 3.32239 9.5293 3.73254C9.5293 4.1427 9.85742 4.47083 10.2676 4.47083C10.6777 4.47083 11.0059 4.1427 11.0059 3.73254ZM13.084 4.47083C13.1387 5.48254 13.1387 8.5177 13.084 9.52942C13.0293 10.5138 12.8105 11.3615 12.0996 12.0997C11.3887 12.8107 10.5137 13.0294 9.5293 13.0841C8.51758 13.1388 5.48242 13.1388 4.4707 13.0841C3.48633 13.0294 2.63867 12.8107 1.90039 12.0997C1.18945 11.3615 0.970703 10.5138 0.916016 9.52942C0.861328 8.5177 0.861328 5.48254 0.916016 4.47083C0.970703 3.48645 1.18945 2.61145 1.90039 1.90051C2.63867 1.18958 3.48633 0.970825 4.4707 0.916138C5.48242 0.86145 8.51758 0.86145 9.5293 0.916138C10.5137 0.970825 11.3887 1.18958 12.0996 1.90051C12.8105 2.61145 13.0293 3.48645 13.084 4.47083ZM11.7715 10.5958C12.0996 9.80286 12.0176 7.88879 12.0176 6.98645C12.0176 6.11145 12.0996 4.19739 11.7715 3.37708C11.5527 2.85754 11.1426 2.42004 10.623 2.22864C9.80273 1.90051 7.88867 1.98254 7.01367 1.98254C6.11133 1.98254 4.19727 1.90051 3.4043 2.22864C2.85742 2.44739 2.44727 2.85754 2.22852 3.37708C1.90039 4.19739 1.98242 6.11145 1.98242 6.98645C1.98242 7.88879 1.90039 9.80286 2.22852 10.5958C2.44727 11.1427 2.85742 11.5529 3.4043 11.7716C4.19727 12.0997 6.11133 12.0177 7.01367 12.0177C7.88867 12.0177 9.80273 12.0997 10.623 11.7716C11.1426 11.5529 11.5801 11.1427 11.7715 10.5958Z" fill="white"/>
</svg>
