<svg width="136" height="45" viewBox="0 0 136 45" fill="none" xmlns="http://www.w3.org/2000/svg">
<g clip-path="url(#clip0_100_2134)">
<path d="M63.923 0.0267944L60.1801 11.6388L56.464 0.0267944H54.8599L59.5652 14.4011H60.8217L65.5271 0.0267944H63.923Z" fill="#202021"/>
<path d="M69.2699 0.0267944H67.746V14.4011H69.2699V0.0267944Z" fill="#202021"/>
<path d="M73.4406 0.0267944V14.4011H82.2898V13.0333H74.9644V0.0267944H73.4406Z" fill="#202021"/>
<path d="M84.9633 0.0267944V14.4011H93.8125V13.0333H86.4871V0.0267944H84.9633Z" fill="#202021"/>
<path d="M96.486 0.0267944V14.4011H105.389V13.0333H98.0098V7.83073H104.293V6.46303H98.0098V1.39449H105.389V0.0267944H96.486Z" fill="#202021"/>
<path d="M122.098 13.0602C121.242 13.9183 119.959 14.4011 118.489 14.4011H113.569V0.0267944H118.489C119.986 0.0267944 121.242 0.482694 122.098 1.36768C123.595 2.86946 123.515 5.06851 123.515 7.05302C123.515 9.03752 123.595 11.5584 122.098 13.0602ZM121.028 2.44038C120.28 1.66267 119.317 1.39449 118.221 1.39449H115.093V13.0065H118.221C119.317 13.0065 120.307 12.7115 121.028 11.9606C122.018 10.9416 121.964 8.79616 121.964 7.0262C121.991 5.28305 122.018 3.48627 121.028 2.44038Z" fill="#202021"/>
<path d="M127.124 14.4011V0.0267944H136V1.39449H128.648V6.46303H134.931V7.83073H128.648V13.0333H136V14.4011H127.124Z" fill="#202021"/>
<path d="M55.9292 44.705V19.2819H60.8751V40.2801H72.3711V44.705H55.9292Z" fill="#202021"/>
<path d="M83.3859 34.3802V44.8123H78.4667V34.3802L70.8473 19.3892H76.221L80.953 29.6335L85.6316 19.3892H91.0053L83.3859 34.3802Z" fill="#202021"/>
<path d="M109.025 42.2378C107.233 44.0346 105.068 45.0268 102.18 45.0268C99.2931 45.0268 97.1008 44.0346 95.3096 42.2378C92.7431 39.6633 92.8233 36.4988 92.8233 32.1007C92.8233 27.7026 92.7431 24.5382 95.3096 21.9637C97.1008 20.1669 99.2931 19.1746 102.18 19.1746C105.068 19.1746 107.233 20.1669 109.025 21.9637C111.591 24.5382 111.538 27.7026 111.538 32.1007C111.538 36.4988 111.591 39.6633 109.025 42.2378ZM105.362 24.9672C104.64 24.1359 103.544 23.5995 102.18 23.5995C100.817 23.5995 99.6941 24.1359 98.9723 24.9672C98.0098 26.0399 97.7692 27.2199 97.7692 32.1007C97.7692 36.9815 98.0098 38.1615 98.9723 39.2342C99.6941 40.0656 100.817 40.6019 102.18 40.6019C103.544 40.6019 104.64 40.0656 105.362 39.2342C106.324 38.1615 106.618 36.9815 106.618 32.1007C106.618 27.1931 106.324 26.0131 105.362 24.9672Z" fill="#202021"/>
<path d="M131.589 44.8123L121.563 29.2044V44.8123H116.617V19.3892H121.029L131.054 34.9434V19.3892H136V44.8123H131.589Z" fill="#202021"/>
<path d="M26.2269 4.39809C25.9595 4.37128 25.7189 4.31764 25.505 4.21037C25.104 4.04946 24.8634 3.78129 24.9703 3.56675C25.0505 3.40584 25.0773 3.21812 25.6387 3.08403V0H0V44.7855H9.57106C9.678 44.6514 9.75821 44.5173 9.83841 44.3564C9.89188 44.1687 9.94535 43.9809 10.1058 43.82C10.48 43.4178 11.0147 43.4714 11.4692 43.23C11.6296 43.0959 11.9237 42.9887 11.897 42.7205C11.7098 42.4791 11.4692 42.801 11.2286 42.801C10.7207 42.935 10.2662 43.2837 9.83841 43.6323C9.38392 43.8468 8.60861 43.7128 8.18085 43.3641C8.02044 43.2569 7.94024 43.0423 7.7531 43.0155C7.35207 42.9082 7.05799 43.1764 6.73717 43.3641C6.6837 43.3641 6.65697 43.2837 6.63023 43.2569C6.65697 42.5864 7.24513 42.1037 7.8333 41.8355C8.23432 41.6746 8.74228 41.621 9.00963 41.2187C9.46412 40.6555 10.186 40.441 10.8543 40.3337C12.4852 40.0387 13.6615 41.1651 15.0517 41.621C15.5597 41.7551 16.0944 42.0232 16.6023 41.8355C16.736 41.8355 16.8697 41.7282 16.9766 41.6746C17.0835 41.5137 17.2974 41.3796 17.2974 41.1651C17.3776 40.7092 17.0835 40.3337 16.7895 39.9851C16.6023 39.851 16.4419 39.6365 16.2548 39.5024C15.6131 39.0197 14.9448 38.6442 14.2497 38.2688C13.5813 37.9201 12.2713 36.3647 12.0307 35.292C11.7901 34.2461 11.5762 31.1085 14.3031 30.3039C16.5221 29.6335 18.3133 30.143 22.3503 32.0203C23.7138 32.6371 24.7564 32.8784 25.5317 32.9321C25.5585 32.9321 25.5585 32.9321 25.5585 32.9321C25.5852 32.9321 25.612 32.9321 25.6654 32.9321C26.8952 32.9589 27.4032 32.4493 27.5101 32.2884C27.6438 32.0471 27.9914 30.9207 25.6654 30.0894C25.6387 30.0894 25.5852 30.0626 25.5585 30.0626C25.5585 30.0626 25.5585 30.0626 25.5317 30.0626C25.3981 30.0089 25.2377 29.9821 25.0773 29.9285C22.1097 29.124 21.2007 26.5226 20.9066 26.0667C20.5858 25.6108 19.8105 24.4309 18.554 24.8063C16.3082 25.5036 17.9391 28.5072 17.7519 28.5876C17.6984 28.6681 17.645 28.5876 17.645 28.5876C14.9715 24.4845 11.8435 25.6645 11.1484 26.2008C10.4533 26.7372 9.62453 26.9785 9.22351 26.9517C9.11657 26.9517 9.25025 26.8176 9.25025 26.8176C9.91862 26.3886 9.54433 25.7449 9.54433 25.7449C8.79575 24.565 7.72636 24.8331 6.65697 25.8522C5.58758 26.8445 4.03696 26.2008 4.03696 26.2008C3.71614 26.6299 3.529 26.5226 3.529 26.5226C3.36859 26.3081 3.39532 25.289 4.11716 24.5918C4.11716 24.5918 4.25084 24.4577 4.35777 23.9213C4.46471 23.385 4.70533 23.4386 5.13308 23.0632C5.29349 22.9559 5.40043 22.8754 5.32023 22.6073C5.24002 22.3391 5.02614 22.5805 5.02614 22.5805C4.839 22.7682 4.65186 22.9827 4.41124 23.09C3.66267 23.3045 3.34185 22.3659 2.59328 22.4464C2.24572 22.4464 1.95164 22.6609 1.63082 22.7414C1.52388 22.4464 1.71103 22.1782 1.87144 21.9636C2.13879 21.6418 2.53981 21.2932 2.96756 21.2396C3.10124 21.1323 3.15471 20.9714 3.31512 20.8909C4.03696 20.4887 5.10635 20.5691 5.21329 20.5959C5.29349 20.6228 5.66778 20.6764 5.50737 20.435C5.42717 20.301 5.32023 20.3546 5.13308 20.3546C4.97268 20.3814 4.03696 20.3278 3.6894 20.2205C3.34185 20.1132 3.02103 20.0328 2.83389 20.1937C2.70022 20.301 2.43287 20.4887 2.43287 20.4887C2.43287 20.4887 1.60409 20.0864 3.0745 19.2819C3.18144 19.2282 3.15471 19.1746 3.15471 19.1746C4.06369 18.0751 6.49656 18.1019 7.32534 18.5846C8.26106 19.0673 8.92943 20.73 10.7207 20.435C11.389 20.301 11.7098 19.8987 11.9772 19.3623C12.9931 17.4046 11.9505 14.4815 10.7207 15.9565C10.2929 16.466 10.2394 17.5387 9.94535 17.1097C9.81168 16.9219 9.73147 15.6347 9.65127 15.3129C9.5978 14.6692 9.73147 13.9988 9.89188 13.4088C10.2394 12.4702 10.7741 11.5316 10.6672 10.4321C10.6137 10.2175 10.5335 9.94934 10.2929 9.86889C10.0256 9.70799 9.75821 9.60072 9.43739 9.5739C8.71555 9.60072 8.10065 10.0834 7.2986 9.86889C7.11146 9.84207 6.92432 9.76162 6.76391 9.65435C6.55003 9.49344 6.36289 9.22527 6.0688 9.19845C5.64105 9.17163 5.24002 9.33254 4.839 9.43981C4.7588 9.43981 4.73206 9.35936 4.70533 9.30572C4.78553 8.87664 5.29349 8.74255 5.58758 8.47437C6.04207 8.2062 6.52329 8.01847 7.05799 7.93802C7.51248 7.48212 8.12738 7.50894 8.71555 7.48212C9.00963 7.50894 9.27698 7.61621 9.54433 7.64303C9.54433 7.61621 9.57106 7.61621 9.5978 7.58939C9.62453 7.4553 9.54433 7.32122 9.43739 7.24076C9.08984 7.10667 8.76902 7.34803 8.39473 7.2944C8.10065 7.26758 7.8333 7.13349 7.64616 6.91895C7.48575 6.65077 7.37881 6.24851 7.03126 6.14124C6.73717 6.03397 6.44309 6.0876 6.17574 6.16806C6.14901 6.11442 6.09554 6.03397 6.14901 5.98033C6.41636 5.71216 6.76391 5.65852 7.08473 5.57807C7.56595 5.52443 8.02044 5.44398 8.47494 5.28308C9.27698 5.1758 9.65127 6.03397 10.3196 6.24851C10.48 6.24851 10.6939 6.5435 10.8276 6.27533C10.8811 6.16806 10.8811 6.00715 10.8009 5.89988C10.6405 5.71216 10.2394 5.84625 10.0523 5.71216C9.78494 5.57807 9.54433 5.41716 9.49086 5.09535C9.46412 4.45173 8.68882 4.53218 8.31453 4.23719C8.28779 4.21037 8.23432 4.12992 8.20759 4.07628C8.26106 3.94219 8.82249 3.96901 8.92943 3.91538C9.43739 3.83492 9.14331 3.32539 9.94535 3.11085C10.6939 2.86949 11.0415 2.78903 11.496 2.78903C12.5119 2.84267 15.6131 5.30989 16.2815 9.19845C16.8964 12.7652 16.4152 16.3051 16.1478 17.0828C16.0944 17.1901 16.0676 17.2706 16.0676 17.3242C16.0944 17.2974 16.1211 17.2706 16.1478 17.2974C16.2548 17.3242 16.3884 17.2169 16.3884 17.2169C18.1262 15.6615 19.8105 15.6079 20.4254 15.5542C21.0136 15.5006 25.1307 15.6347 24.4624 14.3474C24.0613 13.5697 21.9225 14.2938 22.083 14.2402C22.2166 14.1865 23.4464 13.382 22.7781 13.382C22.1097 13.382 20.5056 14.2938 20.5056 14.2938C20.5056 14.2938 21.2274 12.1484 21.7621 11.2902C21.8691 11.1025 22.2434 10.5125 22.4305 10.3516C22.5642 10.2443 23.1523 10.0834 23.286 10.2175C23.3662 10.2712 23.9277 10.7539 25.612 10.8611C26.1734 10.888 26.5744 10.0566 26.5744 10.0566L26.6546 9.89571L26.7615 9.65435C26.4675 9.49344 26.0664 9.35936 25.5852 9.30572C25.4248 9.2789 25.2377 9.2789 25.0505 9.2789C24.3019 9.2789 23.6336 9.46663 22.9385 9.65435C22.2166 9.84207 21.4948 10.0566 20.6393 10.0566C19.0085 10.0566 17.9658 9.118 17.9658 7.61621C17.9658 6.57032 18.5272 5.41716 19.7838 5.41716C20.3185 5.41716 20.7729 5.60489 21.174 6.00715C21.3611 6.19487 21.3611 6.48987 21.2007 6.67759C21.0403 6.86532 20.773 6.89213 20.5858 6.70441C20.3452 6.46305 20.1046 6.35578 19.7838 6.35578C18.8748 6.35578 18.848 7.48212 18.848 7.61621C18.848 8.84982 19.8105 9.09118 20.6393 9.09118C21.3611 9.09118 22.0295 8.90346 22.7246 8.71573C23.4464 8.52801 24.195 8.31347 25.0505 8.31347C25.2377 8.31347 25.4248 8.31347 25.5852 8.34029C26.2269 8.39392 26.7348 8.55483 27.1358 8.79619C27.1626 8.823 27.1893 8.84982 27.1893 8.87664C27.4032 8.68892 27.4834 7.77712 25.7189 7.66985C25.6654 7.66985 25.6387 7.66985 25.5852 7.66985C25.5317 7.66985 25.505 7.66985 25.4515 7.66985C24.4891 7.66985 23.4732 7.83075 23.0989 7.85757C22.6979 7.88439 22.0562 5.71216 21.8691 5.28308C21.6819 4.85399 22.0562 4.63945 22.9652 4.61263C23.3128 4.61263 24.5426 4.47855 25.6654 4.63945C26.3605 4.7199 26.9754 4.93445 27.2962 5.33671C27.8844 6.40942 28.2854 6.43623 28.6063 5.89988C28.9538 4.96126 27.9111 4.559 26.2269 4.39809Z" fill="#225DA7"/>
<path d="M35.7712 38.4565C35.0494 38.3224 34.3275 38.4297 33.6057 38.2688C32.0818 38.1079 30.6916 37.7324 29.8094 36.4452C29.2747 35.6675 29.1677 35.587 29.0073 34.702C29.0073 34.6484 28.9271 34.6752 28.9004 34.6752C28.5796 34.8898 28.3122 35.1579 28.0181 35.3725C27.0557 36.0697 26.6547 36.2575 25.612 36.4452C25.5585 36.4452 25.5318 36.472 25.4783 36.472C24.195 36.7133 23.7138 36.4452 22.2167 36.4452C20.7997 36.3647 20.0244 37.0888 20.1314 38.5101C20.2116 39.4487 20.2918 39.9315 22.3503 40.0119C24.4089 40.0924 24.6495 40.7628 24.8367 41.031C24.8367 41.031 24.9169 41.1651 24.7832 41.1651C24.6228 41.1651 23.6871 40.9774 23.0187 41.9428C23.0187 41.9428 22.8583 42.1841 23.2059 42.1573C23.4732 42.1305 24.5159 41.7551 25.5318 42.2378C25.7991 42.3719 26.0398 42.5596 26.2804 42.8278C26.2804 42.8278 26.3071 42.9887 26.1467 42.9619C26.0665 42.9619 25.9328 42.8814 25.612 42.935C25.5585 42.935 25.5318 42.935 25.4783 42.9619C25.1575 43.0155 24.7297 43.2032 24.0881 43.6055C22.6177 44.5441 22.992 44.5709 22.6177 44.4905C22.6177 44.4905 21.4681 44.705 21.3077 44.5173C21.281 44.4905 21.2275 44.4636 21.2008 44.4905C21.0938 44.5977 20.9601 44.7318 20.8799 44.8123H31.5471C31.5204 44.6246 31.4937 44.4636 31.6006 44.3027C31.9214 43.8737 32.4561 43.4714 32.9373 43.23C32.9908 43.1764 33.1245 43.0155 33.0443 42.9619C32.9373 42.9082 32.8571 42.8546 32.7769 42.9082C32.0818 43.1764 31.6808 43.9809 30.959 44.115C30.6916 44.115 30.3975 44.0882 30.2371 43.8468C30.1302 43.6859 29.9965 43.4446 29.7826 43.4446C29.4885 43.4446 29.1945 43.4982 28.9538 43.6591C28.8736 43.7128 28.7934 43.7396 28.6865 43.7128C28.5796 43.6591 28.5796 43.525 28.633 43.4178C28.8202 42.935 29.2479 42.5596 29.7024 42.2646C29.9965 42.0501 30.3441 41.916 30.6114 41.6478C30.7985 41.4333 31.0124 41.2187 31.253 41.031C31.6808 40.7628 32.1086 40.4946 32.6165 40.5483C33.7661 40.4678 34.8355 40.8165 35.8514 41.1919C36.0386 41.2455 36.2524 41.2187 36.4129 41.2455C36.9476 41.2187 37.5625 41.0042 37.7763 40.4678C38.0437 40.0119 37.8031 39.5292 37.5357 39.1538C37.0545 38.671 36.3861 38.6174 35.7712 38.4565ZM25.4783 0V3.13766C25.7991 3.05721 26.3606 2.97676 27.323 2.97676C30.5312 2.97676 31.5204 6.0876 34.8355 5.95352C34.8355 5.95352 34.7018 6.62396 34.5147 6.78486C34.5147 6.78486 35.691 6.67759 36.1188 6.73123C36.1188 6.73123 35.3702 7.69666 35.0226 8.09893C34.7018 8.50119 35.2098 9.22527 35.2633 9.7348C35.3167 10.2443 36.5465 14.1061 32.2155 19.9255C31.2263 21.2396 31.4669 21.9636 31.4669 21.9636C31.4669 21.9636 30.4243 21.5077 30.3441 20.0864C30.3441 20.0864 28.74 22.3659 31.9481 25.6913C32.0283 25.7986 32.1353 25.879 32.2422 25.9595L31.8679 25.584C32.7769 26.5226 34.488 26.4958 35.8514 27.7563C37.4288 27.2735 39.22 26.2008 39.22 24.5113C39.22 23.4923 38.9259 22.9291 38.5784 22.2586C38.2308 21.5614 37.8298 20.7837 37.8298 19.5232C37.8298 17.0292 39.0596 15.0179 40.4498 13.2479C40.9578 12.4434 41.5727 11.7729 42.1074 11.2634C43.3639 9.7348 44.4868 8.28665 44.4868 6.8385C44.4868 5.65852 43.3906 4.34446 41.7866 4.34446C41.6529 4.34446 41.5192 4.34446 41.3855 4.37128C41.1984 4.39809 40.9845 4.42491 40.7974 4.45173C40.7706 4.45173 40.7439 4.47855 40.7172 4.47855C40.6102 4.50536 40.53 4.53218 40.4498 4.58582C39.2467 6.86532 40.2092 9.22527 40.2092 9.22527C39.5141 8.6621 39.0329 8.07211 38.6853 7.50894C38.5249 8.84982 38.7388 10.1103 38.7388 10.1103H38.7655C38.8457 10.9148 38.9259 11.612 38.9259 11.7729C38.9794 14.0256 36.9208 14.8838 36.5733 14.8302C36.5198 14.8033 36.6535 14.5083 36.7337 14.267C37.8298 10.8075 36.3327 10.7539 36.6 8.39392C37.001 4.50536 39.3804 2.92312 41.6529 2.94994C41.7064 2.94994 41.7866 2.94994 41.84 2.94994C44.2462 2.94994 45.8502 4.98808 45.8502 6.86532C45.8502 7.2944 45.7968 7.69666 45.6898 8.09893C45.9037 7.85757 46.1711 7.48212 46.4919 6.91895C47.4276 5.28307 46.8929 4.07628 46.8929 4.07628C47.8019 5.60489 47.6682 8.25983 47.4276 8.90346C46.8929 10.298 45.476 10.8075 45.476 10.8075C48.3099 10.888 49.2456 8.84982 49.2456 8.84982C47.8019 13.6502 45.1819 14.7497 45.1819 14.7497C46.5454 15.6347 48.096 14.1597 48.096 14.1597C46.7325 17.8069 45.1819 17.7533 44.0323 18.2628C42.8827 18.7723 40.637 18.9333 40.3429 23.0095C40.5033 23.5995 40.6102 24.4845 40.3963 25.3963C39.9419 27.1395 38.311 28.2658 36.6802 28.8826C36.7069 28.9631 36.7337 29.0435 36.7337 29.0435L36.9476 29.4994C37.0545 29.8749 37.1347 30.3576 37.1347 30.8671C37.1882 31.8057 37.1347 32.7712 37.0545 33.7366C37.0545 34.1657 37.5357 34.6752 37.8565 34.7557C38.819 34.8898 40.8241 32.1275 41.1717 32.4493C40.931 33.7902 42.1074 34.3534 42.5886 34.8898C43.0164 35.3457 43.5243 35.8284 43.7115 36.4184C43.8451 36.9279 43.8986 37.4642 43.7917 38.0274C43.6045 39.0733 43.0431 40.2801 43.8451 41.2187C44.1927 41.6478 44.0323 41.7283 44.0323 41.7283C43.0164 42.2914 41.439 42.4255 41.439 42.4255C41.2519 42.3451 41.0915 42.64 40.7974 43.0155C40.2627 43.6859 39.728 44.3027 38.9794 44.7855H51.1705V0H25.4783Z" fill="#E4342A"/>
</g>
<defs>
<clipPath id="clip0_100_2134">
<rect width="136" height="45" fill="white"/>
</clipPath>
</defs>
</svg>
