<svg width="16" height="12" viewBox="0 0 16 12" fill="none" xmlns="http://www.w3.org/2000/svg">
<path d="M15.1504 2.41809C15.4785 3.56653 15.4785 6.02747 15.4785 6.02747C15.4785 6.02747 15.4785 8.46106 15.1504 9.63684C14.9863 10.2931 14.4668 10.7853 13.8379 10.9493C12.6621 11.2501 8.01367 11.2501 8.01367 11.2501C8.01367 11.2501 3.33789 11.2501 2.16211 10.9493C1.5332 10.7853 1.01367 10.2931 0.849609 9.63684C0.521484 8.46106 0.521484 6.02747 0.521484 6.02747C0.521484 6.02747 0.521484 3.56653 0.849609 2.41809C1.01367 1.76184 1.5332 1.24231 2.16211 1.07825C3.33789 0.750122 8.01367 0.750122 8.01367 0.750122C8.01367 0.750122 12.6621 0.750122 13.8379 1.07825C14.4668 1.24231 14.9863 1.76184 15.1504 2.41809ZM6.48242 8.24231L10.3652 6.02747L6.48242 3.81262V8.24231Z" fill="white"/>
</svg>
