<svg width="256" height="750" viewBox="0 0 750 256" fill="none" xmlns="http://www.w3.org/2000/svg">
    <rect width="256" height="750" />
    <path
        d="M116.928 250.176H62.176L54.056 275H0L60.088 110.744H119.48L179.336 275H125.048L116.928 250.176ZM104.4 211.432L89.552 165.728L74.704 211.432H104.4Z"
        fill="black" />
    <path
        d="M325.366 167.12C325.366 177.483 322.968 186.917 318.174 195.424C313.379 203.776 306.264 210.427 296.829 215.376C287.549 220.325 276.259 222.8 262.957 222.8H242.542V275H191.038V110.744H262.957C283.064 110.744 298.453 115.848 309.125 126.056C319.952 136.264 325.366 149.952 325.366 167.12ZM257.158 182.2C267.829 182.2 273.165 177.173 273.165 167.12C273.165 157.067 267.829 152.04 257.158 152.04H242.542V182.2H257.158Z"
        fill="black" />
    <path
        d="M476.03 167.12C476.03 177.483 473.632 186.917 468.838 195.424C464.043 203.776 456.928 210.427 447.494 215.376C438.214 220.325 426.923 222.8 413.622 222.8H393.206V275H341.702V110.744H413.622C433.728 110.744 449.118 115.848 459.79 126.056C470.616 136.264 476.03 149.952 476.03 167.12ZM407.822 182.2C418.494 182.2 423.83 177.173 423.83 167.12C423.83 157.067 418.494 152.04 407.822 152.04H393.206V182.2H407.822Z"
        fill="black" />
    <path
        d="M729.643 9.96047C729.643 4.53805 733.872 0.225739 739.426 0.225739C744.98 0.225739 749.167 4.40997 749.167 9.91778C749.167 15.4256 744.895 19.7379 739.383 19.7379C733.872 19.7379 729.643 15.4256 729.643 10.0032V9.96047ZM747.287 9.91778C747.287 5.43468 743.997 2.01898 739.426 2.01898C734.855 2.01898 731.565 5.52007 731.565 9.96047C731.565 14.4009 734.897 17.902 739.383 17.902C743.869 17.902 747.287 14.4009 747.287 9.87508V9.91778ZM733.872 9.96047C733.872 6.71556 736.35 4.36727 739.768 4.36727C741.989 4.36727 743.698 5.39198 744.51 6.97174L742.032 8.42341C741.52 7.52679 740.708 7.14252 739.768 7.14252C738.315 7.14252 737.119 8.20993 737.119 9.91778C737.119 11.6256 738.315 12.693 739.768 12.693C740.708 12.693 741.52 12.3088 742.032 11.4121L744.51 12.8638C743.698 14.4863 741.989 15.511 739.768 15.511C736.35 15.511 733.872 13.2054 733.872 9.91778V9.96047Z"
        fill="black" />
    <path d="M665.918 18.7477H657.373V70.8797H665.918V18.7477Z" fill="black" />
    <path
        d="M0 52.7757C0 32.2815 15.7648 17.594 36.9554 17.594C48.7042 17.594 58.5305 21.8636 64.9816 29.6343L54.8563 38.9848C50.2849 33.7332 44.5601 31.0006 37.7244 31.0006C24.9929 31.0006 15.9357 39.9241 15.9357 52.7757C15.9357 65.6272 24.9929 74.5507 37.7244 74.5507C44.5173 74.5507 50.2849 71.8182 54.8563 66.4811L64.9816 75.8316C58.5732 83.6877 48.7469 88 36.8699 88C15.7648 88 0 73.3125 0 52.8184V52.7757Z"
        fill="black" />
    <path d="M91.1319 18.7477H74V31.5565H91.1319V18.7477Z" fill="black" />
    <path d="M91.1319 37.6208H74V70.8811H91.1319V37.6208Z" fill="black" />
    <path d="M559.912 18.7477H542.78V31.5565H559.912V18.7477Z" fill="black" />
    <path d="M559.912 37.6208H542.78V70.8811H559.912V37.6208Z" fill="black" />
    <path
        d="M590.482 40.5204C590.482 33.6036 598.343 30.8283 606.247 30.8283C612.911 30.8283 619.405 32.7497 623.079 36.7631L635.597 26.4306C628.121 20.8801 618.081 18.6599 607.998 18.6599C590.225 18.6599 572.538 25.9183 572.538 41.4597C572.538 70.4931 627.181 51.0236 619.234 70.8773H635.896C635.896 37.2754 590.482 55.0798 590.482 40.5204Z"
        fill="black" />
    <path d="M99.9453 31.5992H129.424V70.8797H146.556V31.5992H176.035V18.7477H99.9453V31.5992Z"
        fill="black" />
    <path
        d="M390.747 45.0963C390.747 27.2066 373.359 18.7101 354.903 18.7101H334.737V31.7324H353.407C362.208 31.7324 372.846 35.5324 372.846 45.0109C372.846 54.4895 363.661 58.1186 354.774 58.3321H339.01V71.3118H354.262C355.287 71.3118 357.295 71.2691 357.295 71.2691C366.181 71.2691 373.231 68.8781 373.231 68.8781C384.51 65.6332 390.747 55.258 390.747 45.139V45.0963Z"
        fill="black" />
    <path d="M350.549 68.2228V87.0518H334.699V58.2746H342.945L350.507 68.1801L350.549 68.2228Z"
        fill="black" />
    <path d="M482.173 18.7477H497.938V58.0709H532.073V70.8797H482.173V18.7477Z" fill="black" />
    <path
        d="M276.051 70.8839C270.54 67.1266 267.037 60.7222 267.037 52.738C267.037 39.8011 276.179 30.963 288.355 30.963C300.531 30.963 309.674 39.8011 309.674 52.738C309.674 60.7222 306.171 67.1266 300.659 70.8839H320.697C323.858 65.675 325.652 59.5267 325.652 52.738C325.652 32.4146 309.802 17.5564 288.398 17.5564C266.994 17.5564 251.144 32.5427 251.144 52.738C251.144 59.484 252.938 65.6323 256.099 70.8839H276.136H276.051Z"
        fill="black" />
    <path
        d="M422.496 70.8839C416.985 67.1266 413.482 60.7222 413.482 52.738C413.482 39.8011 422.625 30.963 434.801 30.963C446.977 30.963 456.119 39.8011 456.119 52.738C456.119 60.7222 452.616 67.1266 447.105 70.8839H467.142C470.303 65.675 472.098 59.5267 472.098 52.738C472.098 32.4146 456.248 17.5564 434.843 17.5564C413.439 17.5564 397.589 32.5427 397.589 52.738C397.589 59.484 399.383 65.6323 402.545 70.8839H422.582H422.496Z"
        fill="black" />
    <path
        d="M217.441 73.2749C215.091 74.0861 212.613 74.5131 209.965 74.5131C197.233 74.5131 188.176 65.5896 188.176 52.738C188.176 39.8865 197.233 30.963 209.965 30.963C216.758 30.963 222.525 33.6955 227.097 38.9472L237.222 29.5967C230.813 21.826 220.987 17.5564 209.196 17.5564C188.005 17.5564 172.24 32.2439 172.24 52.738C172.24 73.2322 188.005 87.9197 209.11 87.9197C215.006 87.9197 220.389 86.8523 225.089 84.8456L217.484 73.2322L217.441 73.2749Z"
        fill="black" />
    <path
        d="M194.642 53.1284L202.247 65.2968L247.149 52.4026L245.611 45.9982C245.354 44.8881 243.047 36.0073 237.194 29.6455C236.34 28.7062 226.727 38.569 227.069 38.9533C228.137 40.1061 229.034 41.5578 229.803 43.0521L194.6 53.1711L194.642 53.1284Z"
        fill="black" />
    <path d="M717.625 36.7806H701.903V52.4928H717.625V36.7806Z" fill="red" />
    <path fill-rule="evenodd" clip-rule="evenodd"
        d="M697.45 56.9231V32.3301H709.626V18.7101H657.461V70.8421H709.626V56.9231H697.45Z"
        fill="red" />
    <path d="M223.918 0H193.157V12.6381H223.918V0Z" fill="black" />
</svg>
