<svg width="14" height="14" viewBox="0 0 14 14" fill="none" xmlns="http://www.w3.org/2000/svg">
<path d="M3.60938 13.1183H1.06641V4.9425H3.60938V13.1183ZM2.32422 3.84875C1.53125 3.84875 0.875 3.16516 0.875 2.34485C0.875 1.82532 1.14844 1.33313 1.58594 1.08704C2.05078 0.813599 2.625 0.813599 3.0625 1.08704C3.52734 1.33313 3.80078 1.82532 3.80078 2.34485C3.80078 3.16516 3.14453 3.84875 2.32422 3.84875ZM10.582 13.1183V9.15344C10.582 8.19641 10.5547 6.99329 9.24219 6.99329C7.92969 6.99329 7.73828 8.005 7.73828 9.07141V13.1183H5.19531V4.9425H7.62891V6.0636H7.65625C8.01172 5.43469 8.83203 4.7511 10.0625 4.7511C12.6328 4.7511 13.125 6.44641 13.125 8.63391V13.1183H10.582Z" fill="white"/>
</svg>
